<svg width="1920" height="1023" viewBox="0 0 1920 1023" fill="none" xmlns="http://www.w3.org/2000/svg">
<mask id="mask0_638_5875" style="mask-type:alpha" maskUnits="userSpaceOnUse" x="0" y="-13" width="1920" height="1036">
<path d="M0 4.20928C0 -5.29515 5.65535 -13 12.6316 -13H1907.37C1914.34 -13 1920 -5.29513 1920 4.2093V1005.79C1920 1015.3 1914.34 1023 1907.37 1023H12.6315C5.6553 1023 0 1015.3 0 1005.79V4.20928Z" fill="#1C1C1C"/>
</mask>
<g mask="url(#mask0_638_5875)">
<path d="M1554.53 770.933C1554.53 770.933 1820.37 559.344 2184.55 559.738C2548.76 560.12 1992.71 1243.44 1992.71 1243.44C1992.72 1243.42 2023.53 1204.85 2023.53 1204.85" stroke="#1351D8" stroke-opacity="0.15" stroke-width="0.877694"/>
<path d="M1569.02 755.207C1569.02 755.207 1832.77 536.626 2197.37 539.633C2561.97 542.639 2013.01 1250.79 2013.01 1250.79C2013.02 1250.77 2043.43 1210.8 2043.43 1210.8" stroke="#1351D8" stroke-opacity="0.15" stroke-width="0.877694"/>
<path d="M1583.91 738.993C1583.91 738.993 1845.58 513.396 2210.6 519.028C2575.62 524.663 2033.7 1257.62 2033.7 1257.62C2033.71 1257.59 2063.72 1216.22 2063.72 1216.22" stroke="#1351D8" stroke-opacity="0.15" stroke-width="0.877694"/>
<path d="M1599.36 722.056C1599.36 722.056 1858.97 489.44 2224.43 497.695C2589.89 505.955 2054.98 1263.72 2054.98 1263.72C2054.99 1263.7 2084.6 1220.91 2084.6 1220.91" stroke="#1351D8" stroke-opacity="0.15" stroke-width="0.877694"/>
<path d="M1614.88 705.033C1614.88 705.033 1872.44 465.419 2238.34 476.294C2604.24 487.172 2076.32 1269.76 2076.32 1269.76C2076.33 1269.74 2105.55 1225.55 2105.55 1225.55" stroke="#1351D8" stroke-opacity="0.15" stroke-width="0.877694"/>
<path d="M1630.48 687.925C1630.48 687.925 1886.02 441.287 2252.39 454.783C2618.77 468.284 2097.79 1275.7 2097.79 1275.7C2097.8 1275.67 2126.62 1230.08 2126.62 1230.08" stroke="#1351D8" stroke-opacity="0.15" stroke-width="0.877694"/>
<path d="M1646.13 670.722C1646.13 670.722 1899.65 417.057 2266.54 433.178C2633.42 449.302 2119.33 1281.55 2119.33 1281.55C2119.35 1281.52 2147.78 1234.52 2147.78 1234.52" stroke="#1351D8" stroke-opacity="0.15" stroke-width="0.877694"/>
<path d="M1661.84 653.448C1661.84 653.448 1913.37 392.753 2280.75 411.514C2648.13 430.252 2140.93 1287.35 2140.93 1287.35C2140.94 1287.32 2168.99 1238.92 2168.99 1238.92" stroke="#1351D8" stroke-opacity="0.15" stroke-width="0.877694"/>
<path d="M2074.62 402.122C2074.62 402.122 1634.57 535.358 1519.38 846.5C1404.2 1157.62 2729.2 985.587 2729.2 985.587L2654.55 994.808" stroke="#1351D8" stroke-opacity="0.15" stroke-width="0.877694"/>
<path d="M2095.07 387.263C2095.07 387.263 1662.68 523.498 1544.82 833.295C1426.95 1143.09 2725.01 960.286 2725.01 960.286L2651.89 970.118" stroke="#1351D8" stroke-opacity="0.15" stroke-width="0.877694"/>
<path d="M2115.68 369.9C2115.68 369.9 1690.96 509.13 1570.43 817.581C1449.89 1126.03 2720.98 932.478 2720.98 932.478L2649.39 942.919" stroke="#1351D8" stroke-opacity="0.15" stroke-width="0.877694"/>
<path d="M2136.49 352.364C2136.49 352.364 1719.44 494.584 1596.24 801.71C1473.03 1108.83 2717.15 904.522 2717.15 904.522L2647.09 915.573" stroke="#1351D8" stroke-opacity="0.15" stroke-width="0.877694"/>
<path d="M2157.48 334.648C2157.48 334.648 1748.11 479.834 1622.25 785.634C1496.39 1091.41 2713.53 876.371 2713.53 876.371L2644.99 888.029" stroke="#1351D8" stroke-opacity="0.15" stroke-width="0.877694"/>
<path d="M2178.66 316.854C2178.66 316.854 1776.96 465.024 1648.46 769.475C1519.95 1073.92 2710.12 848.144 2710.12 848.144L2643.11 860.41" stroke="#1351D8" stroke-opacity="0.15" stroke-width="0.877694"/>
<path d="M2200.66 299.535C2200.66 299.535 1806.63 450.686 1675.51 753.786C1544.37 1056.89 2707.58 820.399 2707.58 820.399L2642.1 833.271" stroke="#1351D8" stroke-opacity="0.15" stroke-width="0.877694"/>
<path d="M2222.98 282.276C2222.98 282.276 1836.63 436.403 1702.89 738.153C1569.13 1039.92 2705.35 792.737 2705.35 792.737L2641.4 806.217" stroke="#1351D8" stroke-opacity="0.15" stroke-width="0.877694"/>
<path d="M2246.67 266.047C2246.67 266.047 1868.02 423.126 1731.65 723.566C1595.28 1023.98 2704.51 766.11 2704.51 766.11L2642.09 780.195" stroke="#1351D8" stroke-opacity="0.15" stroke-width="0.877694"/>
<path d="M2271.41 250.586C2271.41 250.586 1900.45 410.634 1761.49 709.722C1622.52 1008.81 2704.77 740.236 2704.77 740.236L2643.87 754.928" stroke="#1351D8" stroke-opacity="0.15" stroke-width="0.877694"/>
<path d="M2297.16 235.853C2297.16 235.853 1933.89 398.867 1792.35 696.6C1650.8 994.332 2706.05 715.096 2706.05 715.096L2646.68 730.392" stroke="#1351D8" stroke-opacity="0.15" stroke-width="0.877694"/>
<path d="M2323.8 221.812C2323.8 221.812 1968.23 387.788 1824.13 684.166C1680.01 980.565 2708.29 690.661 2708.29 690.661L2650.45 706.56" stroke="#1351D8" stroke-opacity="0.15" stroke-width="0.877694"/>
<path d="M2350.57 208.584C2350.57 208.584 2002.72 377.495 1856.05 672.56C1709.38 967.602 2710.65 667.08 2710.65 667.08L2654.33 683.583" stroke="#1351D8" stroke-opacity="0.15" stroke-width="0.877694"/>
<path d="M2377.36 196.092C2377.36 196.092 2037.22 367.957 1888.02 661.665C1738.81 955.371 2713.07 644.198 2713.07 644.198L2658.29 661.302" stroke="#1351D8" stroke-opacity="0.15" stroke-width="0.877694"/>
<path d="M2402.31 184.728C2402.31 184.728 2069.89 359.543 1918.18 651.891C1766.47 944.239 2713.71 622.45 2713.71 622.45L2660.46 640.157" stroke="#1351D8" stroke-opacity="0.15" stroke-width="0.877694"/>
<path d="M2425.66 174.381C2425.66 174.381 2100.98 352.12 1946.76 643.13C1792.55 934.14 2712.81 601.733 2712.81 601.733L2661.08 620.041" stroke="#1351D8" stroke-opacity="0.15" stroke-width="0.877694"/>
</g>
</svg>
