<svg width="1920" height="1036" viewBox="0 0 1920 1036" fill="none" xmlns="http://www.w3.org/2000/svg">
<mask id="mask0_638_12803" style="mask-type:alpha" maskUnits="userSpaceOnUse" x="0" y="0" width="1920" height="1036">
<path d="M1920 17.2093C1920 7.70485 1914.34 0 1907.37 0H12.6315C5.65527 0 -0.00012207 7.70487 -0.00012207 17.2093V1018.79C-0.00012207 1028.3 5.65527 1036 12.6315 1036H1907.37C1914.34 1036 1920 1028.3 1920 1018.79V17.2093Z" fill="#1C1C1C"/>
</mask>
<g mask="url(#mask0_638_12803)">
<path d="M736.156 833.103C736.156 833.103 470.863 617.708 105.429 619.917C-260.034 622.115 293.216 1319.23 293.216 1319.23C293.205 1319.21 262.554 1279.86 262.554 1279.86" stroke="#F9F9F9" stroke-opacity="0.06" stroke-width="0.877694"/>
<path d="M721.753 816.983C721.753 816.983 458.587 594.397 92.668 599.285C-273.235 604.173 272.782 1326.81 272.782 1326.81C272.771 1326.79 242.528 1286 242.528 1286" stroke="#F9F9F9" stroke-opacity="0.06" stroke-width="0.877694"/>
<path d="M706.955 800.359C706.955 800.359 445.894 570.559 79.508 578.139C-286.874 585.723 251.955 1333.86 251.955 1333.86C251.944 1333.83 222.109 1291.6 222.109 1291.6" stroke="#F9F9F9" stroke-opacity="0.06" stroke-width="0.877694"/>
<path d="M691.589 782.989C691.589 782.989 432.618 545.974 65.7493 556.244C-301.128 566.519 230.544 1340.16 230.544 1340.16C230.533 1340.13 201.104 1296.45 201.104 1296.45" stroke="#F9F9F9" stroke-opacity="0.06" stroke-width="0.877694"/>
<path d="M676.159 765.531C676.159 765.531 419.273 521.321 51.9082 534.279C-315.456 547.238 209.066 1346.39 209.066 1346.39C209.055 1346.37 180.029 1301.24 180.029 1301.24" stroke="#F9F9F9" stroke-opacity="0.06" stroke-width="0.877694"/>
<path d="M660.637 747.984C660.637 747.984 405.815 496.554 37.9348 512.199C-329.956 527.849 187.471 1352.52 187.471 1352.52C187.459 1352.49 158.836 1305.92 158.836 1305.92" stroke="#F9F9F9" stroke-opacity="0.06" stroke-width="0.877694"/>
<path d="M645.075 730.337C645.075 730.337 392.303 471.683 23.867 490.022C-344.568 508.363 165.795 1358.55 165.795 1358.55C165.784 1358.53 137.561 1310.51 137.561 1310.51" stroke="#F9F9F9" stroke-opacity="0.06" stroke-width="0.877694"/>
<path d="M629.449 712.616C629.449 712.616 378.712 446.737 9.73678 467.784C-359.236 488.808 144.07 1364.53 144.07 1364.53C144.058 1364.51 116.233 1315.04 116.233 1315.04" stroke="#F9F9F9" stroke-opacity="0.06" stroke-width="0.877694"/>
<path d="M217.311 457.266C217.311 457.266 657.068 591.266 770.281 908.71C883.491 1226.13 -442.218 1056.86 -442.218 1056.86L-367.531 1065.91" stroke="#F9F9F9" stroke-opacity="0.06" stroke-width="0.877694"/>
<path d="M196.834 442.008C196.834 442.008 628.932 579.127 744.842 895.219C860.759 1211.31 -438 1030.87 -438 1030.87L-364.841 1040.56" stroke="#F9F9F9" stroke-opacity="0.06" stroke-width="0.877694"/>
<path d="M176.187 424.181C176.187 424.181 600.624 564.415 719.224 879.155C837.83 1193.89 -433.942 1002.31 -433.942 1002.31L-362.311 1012.63" stroke="#F9F9F9" stroke-opacity="0.06" stroke-width="0.877694"/>
<path d="M155.343 406.175C155.343 406.175 572.115 549.522 693.407 862.93C814.705 1176.34 -430.087 973.599 -430.087 973.599L-359.984 984.55" stroke="#F9F9F9" stroke-opacity="0.06" stroke-width="0.877694"/>
<path d="M134.321 387.984C134.321 387.984 543.417 534.42 667.393 846.496C791.365 1158.55 -426.437 944.684 -426.437 944.684L-357.862 956.265" stroke="#F9F9F9" stroke-opacity="0.06" stroke-width="0.877694"/>
<path d="M113.11 369.713C113.11 369.713 514.536 519.256 641.177 829.978C767.824 1140.7 -422.995 915.689 -422.995 915.689L-355.948 927.902" stroke="#F9F9F9" stroke-opacity="0.06" stroke-width="0.877694"/>
<path d="M91.0706 351.93C91.0706 351.93 484.824 504.578 614.121 813.945C743.424 1123.31 -420.429 887.188 -420.429 887.188L-354.91 900.03" stroke="#F9F9F9" stroke-opacity="0.06" stroke-width="0.877694"/>
<path d="M68.713 334.209C68.713 334.209 454.79 489.96 586.732 797.971C718.69 1106 -418.165 858.772 -418.165 858.772L-354.175 872.245" stroke="#F9F9F9" stroke-opacity="0.06" stroke-width="0.877694"/>
<path d="M44.9833 317.544C44.9833 317.544 423.37 476.373 557.967 783.072C692.559 1089.75 -417.296 831.416 -417.296 831.416L-354.835 845.517" stroke="#F9F9F9" stroke-opacity="0.06" stroke-width="0.877694"/>
<path d="M20.1939 301.668C20.1939 301.668 390.897 463.594 528.117 768.936C665.342 1074.28 -417.521 804.832 -417.521 804.832L-356.589 819.563" stroke="#F9F9F9" stroke-opacity="0.06" stroke-width="0.877694"/>
<path d="M-5.59781 286.538C-5.59781 286.538 357.417 451.559 497.248 755.544C637.083 1059.53 -418.775 778.998 -418.775 778.998L-359.371 794.358" stroke="#F9F9F9" stroke-opacity="0.06" stroke-width="0.877694"/>
<path d="M-32.288 272.119C-32.288 272.119 323.034 440.232 465.461 742.86C607.903 1045.51 -420.98 753.888 -420.98 753.888L-363.103 769.873" stroke="#F9F9F9" stroke-opacity="0.06" stroke-width="0.877694"/>
<path d="M-59.1107 258.534C-59.1107 258.534 288.503 429.714 433.531 731.027C578.555 1032.32 -423.303 729.651 -423.303 729.651L-366.955 746.265" stroke="#F9F9F9" stroke-opacity="0.06" stroke-width="0.877694"/>
<path d="M-85.9497 245.704C-85.9497 245.704 253.96 419.971 401.554 719.924C549.153 1019.88 -425.696 706.131 -425.696 706.131L-370.879 723.371" stroke="#F9F9F9" stroke-opacity="0.06" stroke-width="0.877694"/>
<path d="M-110.961 234.031C-110.961 234.031 221.236 411.382 371.381 709.975C521.527 1008.57 -426.298 683.773 -426.298 683.773L-373.01 701.64" stroke="#F9F9F9" stroke-opacity="0.06" stroke-width="0.877694"/>
<path d="M-134.369 223.402C-134.369 223.402 190.102 403.812 342.788 701.066C495.473 998.321 -425.357 662.47 -425.357 662.47L-373.6 680.963" stroke="#F9F9F9" stroke-opacity="0.06" stroke-width="0.877694"/>
<path d="M-156.282 213.701C-156.282 213.701 160.465 397.188 315.659 693.082C470.853 988.977 -422.943 642.094 -422.943 642.094L-372.715 661.213" stroke="#F9F9F9" stroke-opacity="0.06" stroke-width="0.877694"/>
<path d="M-176.818 204.842C-176.818 204.842 132.197 391.404 289.887 685.959C447.575 980.515 -419.178 622.61 -419.178 622.61C-419.19 622.614 -370.481 642.354 -370.481 642.354" stroke="#F9F9F9" stroke-opacity="0.06" stroke-width="0.877694"/>
</g>
</svg>
