<svg width="1920" height="1036" viewBox="0 0 1920 1036" fill="none" xmlns="http://www.w3.org/2000/svg">
<mask id="mask0_638_5841" style="mask-type:alpha" maskUnits="userSpaceOnUse" x="0" y="0" width="1920" height="1036">
<path d="M1920 1018.79C1920 1028.3 1914.34 1036 1907.37 1036H12.6316C5.6554 1036 0 1028.3 0 1018.79V17.2094C0 7.70496 5.6554 0 12.6316 0H1907.37C1914.34 0 1920 7.70496 1920 17.2094V1018.79Z" fill="#1C1C1C"/>
</mask>
<g mask="url(#mask0_638_5841)">
<path d="M365.466 252.067C365.466 252.067 99.6271 463.656 -264.552 463.262C-628.76 462.88 -72.7093 -220.445 -72.7093 -220.445C-72.7203 -220.421 -103.532 -181.854 -103.532 -181.854" stroke="#1351D8" stroke-opacity="0.15" stroke-width="0.877694"/>
<path d="M350.976 267.793C350.976 267.793 87.235 486.374 -277.375 483.367C-641.968 480.361 -93.0076 -227.791 -93.0076 -227.791C-93.0186 -227.768 -123.429 -187.796 -123.429 -187.796" stroke="#1351D8" stroke-opacity="0.15" stroke-width="0.877694"/>
<path d="M336.092 284.007C336.092 284.007 74.4236 509.604 -290.6 503.972C-655.619 498.337 -113.7 -234.618 -113.7 -234.618C-113.711 -234.595 -143.723 -193.218 -143.723 -193.218" stroke="#1351D8" stroke-opacity="0.15" stroke-width="0.877694"/>
<path d="M320.64 300.944C320.64 300.944 61.0286 533.56 -304.427 525.305C-669.89 517.045 -134.977 -240.72 -134.977 -240.72C-134.988 -240.696 -164.603 -197.915 -164.603 -197.915" stroke="#1351D8" stroke-opacity="0.15" stroke-width="0.877694"/>
<path d="M305.124 317.967C305.124 317.967 47.5626 557.581 -318.339 546.706C-684.241 535.828 -156.322 -246.76 -156.322 -246.76C-156.333 -246.735 -185.553 -202.549 -185.553 -202.549" stroke="#1351D8" stroke-opacity="0.15" stroke-width="0.877694"/>
<path d="M289.518 335.075C289.518 335.075 33.9822 581.713 -332.388 568.217C-698.77 554.716 -177.787 -252.695 -177.787 -252.695C-177.798 -252.671 -206.625 -207.078 -206.625 -207.078" stroke="#1351D8" stroke-opacity="0.15" stroke-width="0.877694"/>
<path d="M273.871 352.278C273.871 352.278 20.3456 605.943 -346.536 589.822C-713.416 573.698 -199.334 -258.547 -199.334 -258.547C-199.345 -258.522 -227.78 -211.523 -227.78 -211.523" stroke="#1351D8" stroke-opacity="0.15" stroke-width="0.877694"/>
<path d="M258.159 369.551C258.159 369.551 6.62838 630.247 -360.75 611.486C-728.125 592.747 -220.933 -264.348 -220.933 -264.348C-220.945 -264.323 -248.992 -215.916 -248.992 -215.916" stroke="#1351D8" stroke-opacity="0.15" stroke-width="0.877694"/>
<path d="M-154.618 620.878C-154.618 620.878 285.426 487.642 400.616 176.5C515.803 -134.618 -809.196 37.4127 -809.196 37.4127L-734.552 28.192" stroke="#1351D8" stroke-opacity="0.15" stroke-width="0.877694"/>
<path d="M-175.066 635.737C-175.066 635.737 257.318 499.502 375.183 189.705C493.054 -120.091 -805.006 62.7137 -805.006 62.7137L-731.889 52.8818" stroke="#1351D8" stroke-opacity="0.15" stroke-width="0.877694"/>
<path d="M-195.682 653.1C-195.682 653.1 229.039 513.87 349.57 205.419C470.108 -103.031 -800.977 90.5217 -800.977 90.5217L-729.387 80.0814" stroke="#1351D8" stroke-opacity="0.15" stroke-width="0.877694"/>
<path d="M-216.494 670.636C-216.494 670.636 200.559 528.416 323.76 221.29C446.966 -85.8344 -797.15 118.478 -797.15 118.478L-727.088 107.427" stroke="#1351D8" stroke-opacity="0.15" stroke-width="0.877694"/>
<path d="M-237.481 688.352C-237.481 688.352 171.893 543.166 297.753 237.366C423.608 -68.4104 -793.529 146.629 -793.529 146.629L-724.994 134.971" stroke="#1351D8" stroke-opacity="0.15" stroke-width="0.877694"/>
<path d="M-258.656 706.146C-258.656 706.146 143.044 557.976 271.543 253.525C400.048 -50.9235 -790.116 174.856 -790.116 174.856L-723.109 162.59" stroke="#1351D8" stroke-opacity="0.15" stroke-width="0.877694"/>
<path d="M-280.659 723.465C-280.659 723.465 113.366 572.314 244.494 269.214C375.628 -33.8853 -787.58 202.601 -787.58 202.601L-722.101 189.729" stroke="#1351D8" stroke-opacity="0.15" stroke-width="0.877694"/>
<path d="M-302.977 740.724C-302.977 740.724 83.3662 586.597 217.112 284.847C350.874 -16.9221 -785.347 230.263 -785.347 230.263L-721.396 216.783" stroke="#1351D8" stroke-opacity="0.15" stroke-width="0.877694"/>
<path d="M-326.666 756.953C-326.666 756.953 51.983 599.874 188.355 299.434C324.721 -0.983033 -784.508 256.89 -784.508 256.89L-722.085 242.805" stroke="#1351D8" stroke-opacity="0.15" stroke-width="0.877694"/>
<path d="M-351.412 772.414C-351.412 772.414 19.5483 612.366 158.513 313.278C297.482 14.1924 -784.765 282.764 -784.765 282.764L-723.87 268.072" stroke="#1351D8" stroke-opacity="0.15" stroke-width="0.877694"/>
<path d="M-377.158 787.147C-377.158 787.147 -13.8916 624.133 127.651 326.4C269.198 28.6684 -786.052 307.904 -786.052 307.904L-726.685 292.608" stroke="#1351D8" stroke-opacity="0.15" stroke-width="0.877694"/>
<path d="M-403.8 801.188C-403.8 801.188 -48.2325 635.212 95.8734 338.834C239.994 42.4353 -788.289 332.339 -788.289 332.339L-730.449 316.44" stroke="#1351D8" stroke-opacity="0.15" stroke-width="0.877694"/>
<path d="M-430.572 814.416C-430.572 814.416 -82.7202 645.505 63.9521 350.44C210.619 55.3975 -790.646 355.92 -790.646 355.92L-734.334 339.417" stroke="#1351D8" stroke-opacity="0.15" stroke-width="0.877694"/>
<path d="M-457.357 826.908C-457.357 826.908 -117.217 655.043 31.984 361.335C181.189 67.6289 -793.073 378.802 -793.073 378.802L-738.291 361.698" stroke="#1351D8" stroke-opacity="0.15" stroke-width="0.877694"/>
<path d="M-482.312 838.272C-482.312 838.272 -149.892 663.457 1.8196 371.109C153.533 78.7611 -793.71 400.55 -793.71 400.55L-740.457 382.843" stroke="#1351D8" stroke-opacity="0.15" stroke-width="0.877694"/>
<path d="M-505.66 848.619C-505.66 848.619 -180.976 670.88 -26.7637 379.87C127.447 88.86 -792.806 421.267 -792.806 421.267L-741.083 402.959" stroke="#1351D8" stroke-opacity="0.15" stroke-width="0.877694"/>
</g>
</svg>
